ply
format ascii 1.0
comment SurfExtract output
element vertex 842
property float x
property float y
property float z
property float nx
property float ny
property float nz
end_header
-0.131447 0.135531 -0.187946 -0.821536 0.464560 0.330549
-0.097472 -0.461878 -0.213658 -0.930826 -0.333184 0.150168
-0.099758 -0.462105 -0.193444 -0.775322 -0.631358 0.016218
-0.096780 -0.459995 -0.157218 -0.022063 -0.993114 0.115056
-0.097385 -0.443911 -0.213936 -0.110569 0.000000 -0.993868
-0.100967 -0.443781 -0.193168 -0.998034 0.000000 -0.062681
-0.096780 -0.444468 -0.157218 -0.957912 0.000000 0.287061
-0.097385 -0.404453 -0.213936 -0.097979 -0.016268 -0.995055
-0.100967 -0.402013 -0.193168 -0.998041 0.013299 -0.061126
-0.096780 -0.401771 -0.157218 -0.958136 0.015264 0.285905
-0.096508 -0.361797 -0.212138 -0.965956 0.033399 -0.256542
-0.099632 -0.362641 -0.193000 -0.996916 0.037461 -0.068963
-0.094275 -0.362745 -0.153717 -0.943787 0.035760 0.328614
-0.096558 -0.324390 -0.205732 -0.980363 0.034477 -0.194167
-0.097956 -0.323827 -0.196147 -0.993979 0.034494 -0.103999
-0.093383 -0.324156 -0.155355 -0.947531 0.035383 0.317699
-0.091641 -0.281855 -0.218366 -0.945000 0.035514 -0.325138
-0.096863 -0.283902 -0.193180 -0.997356 0.033086 -0.064706
-0.092401 -0.281650 -0.157160 -0.951657 0.034943 0.305170
-0.091578 -0.242929 -0.214050 -0.963958 0.033850 -0.263893
-0.095028 -0.241904 -0.196797 -0.993294 0.035138 -0.110151
-0.091460 -0.203597 -0.209684 -0.969183 0.032372 -0.244205
-0.093756 -0.202272 -0.195690 -0.994007 0.034506 -0.103732
-0.092073 -0.163195 -0.198841 -0.989117 0.031521 -0.143718
-0.092735 -0.165603 -0.193158 -0.997294 0.033036 -0.065669
-0.091467 -0.123880 -0.191143 -0.998086 0.037477 -0.049199
-0.106688 -0.025369 -0.263321 -0.725543 -0.663572 -0.182371
-0.126737 -0.022297 -0.221373 -0.872827 0.000770 -0.488029
-0.129043 -0.022694 -0.165623 -0.480363 -0.842165 -0.244971
-0.127926 -0.025085 -0.156351 -0.590377 -0.794343 0.143087
-0.107300 -0.021994 -0.111772 -0.844925 -0.533443 -0.039238
-0.094216 0.001692 -0.278133 -0.246032 -0.096856 -0.964410
-0.102235 -0.004586 -0.269165 -0.984600 0.025541 -0.172948
-0.126726 -0.001712 -0.221359 -0.962997 0.000671 -0.269510
-0.130167 -0.001934 -0.168619 -0.993579 -0.000415 -0.113138
-0.127920 -0.001933 -0.156370 -0.815663 0.003632 0.578516
-0.111580 0.012802 -0.117059 -0.985011 -0.165874 -0.047324
-0.091802 0.035567 -0.280628 -0.695682 -0.000514 -0.718350
-0.117233 0.052979 -0.238440 -0.059988 -0.182230 -0.981424
-0.126706 0.036021 -0.221327 -0.829974 0.540067 0.139534
-0.128828 0.036517 -0.178694 -0.657307 -0.178063 -0.732285
-0.116643 0.063287 -0.125988 -0.979073 -0.147624 -0.140084
-0.111899 0.037261 -0.117573 -0.852662 0.001325 0.522462
-0.091788 0.076219 -0.280608 -0.903009 0.000604 -0.429621
-0.116591 0.078439 -0.243164 -0.256224 -0.190910 -0.947577
-0.122919 0.077014 -0.233099 -0.323610 0.004344 -0.946180
-0.126532 0.078034 -0.188244 -0.388148 -0.182571 -0.903332
-0.116933 0.078589 -0.130777 -0.898009 -0.224468 -0.378410
-0.111788 0.075994 -0.117451 -0.644883 -0.008817 0.764230
-0.117561 0.117634 -0.245350 -0.894085 -0.000853 -0.447897
-0.128618 0.133029 -0.198254 -0.303948 0.824665 -0.477015
-0.126947 0.115896 -0.195538 -0.341828 -0.180952 -0.922177
-0.121458 0.118207 -0.136714 -0.960450 -0.195265 -0.198512
-0.097785 0.162921 -0.239765 -0.856928 -0.239574 -0.456376
-0.106603 0.158406 -0.208689 -0.833124 -0.525377 -0.172869
-0.107933 0.157913 -0.197744 -0.841580 -0.532659 -0.089545
-0.107275 0.163564 -0.156857 -0.941407 -0.170244 0.291152
-0.097785 0.197223 -0.239765 -0.676641 0.621962 -0.394107
-0.106745 0.195957 -0.218252 -0.965030 0.142542 -0.219999
-0.110804 0.197818 -0.196991 -0.303271 0.952516 0.027200
-0.106749 0.195558 -0.155055 -0.738605 0.626896 0.247919
-0.066796 -0.806355 -0.208893 -0.614541 -0.741262 -0.269945
-0.067330 -0.806355 -0.196446 -0.734530 -0.678474 0.011737
-0.061787 -0.806355 -0.154558 -0.561059 -0.624144 0.543744
-0.066622 -0.803287 -0.210542 -0.012747 -0.979077 -0.203091
-0.070084 -0.802890 -0.196582 -0.026020 -0.971566 -0.235334
-0.062999 -0.801873 -0.154140 -0.889076 0.000000 0.457759
-0.066622 -0.761468 -0.210542 -0.940848 0.000000 -0.338830
-0.070084 -0.764407 -0.196582 -0.990642 0.000000 -0.136483
-0.062999 -0.762853 -0.154140 -0.889076 0.000000 0.457759
-0.066622 -0.723134 -0.210542 -0.940848 0.000000 -0.338830
-0.070084 -0.722426 -0.196582 -0.990642 0.000000 -0.136483
-0.062999 -0.723833 -0.154140 -0.889076 0.000000 0.457759
-0.066622 -0.684800 -0.210542 -0.940848 0.000000 -0.338830
-0.070084 -0.683944 -0.196582 -0.990642 0.000000 -0.136483
-0.062999 -0.684813 -0.154140 -0.889076 0.000000 0.457759
-0.066622 -0.642981 -0.210542 -0.940848 0.000000 -0.338830
-0.070084 -0.641964 -0.196582 -0.990642 0.000000 -0.136483
-0.062999 -0.641892 -0.154140 -0.889076 0.000000 0.457759
-0.066622 -0.604646 -0.210542 -0.940848 0.000000 -0.338830
-0.070084 -0.603481 -0.196582 -0.990642 0.000000 -0.136483
-0.062999 -0.602869 -0.154140 -0.889076 0.000000 0.457759
-0.066622 -0.562827 -0.210542 -0.940848 0.000000 -0.338830
-0.070084 -0.561500 -0.196582 -0.990642 0.000000 -0.136483
-0.062999 -0.563846 -0.154140 -0.889076 0.000000 0.457759
-0.066622 -0.524493 -0.210542 -0.940848 0.000000 -0.338830
-0.070084 -0.523018 -0.196582 -0.990642 0.000000 -0.136483
-0.062999 -0.524823 -0.154140 -0.889076 0.000000 0.457759
-0.087034 -0.462105 -0.238007 -0.721387 -0.268166 -0.638504
-0.086953 -0.462105 -0.233514 -0.766747 -0.641799 0.013883
-0.089615 -0.462105 -0.193445 0.000000 -1.000000 0.000000
-0.088882 -0.462105 -0.154037 0.000000 -1.000000 0.000000
-0.071529 -0.462105 -0.115277 -0.525665 -0.601875 0.601185
-0.087053 -0.442770 -0.238066 -0.852694 -0.007902 -0.522351
-0.087735 -0.442073 -0.236837 -0.873323 0.000000 -0.487142
-0.091334 -0.443054 -0.142955 -0.902994 0.000000 0.429653
-0.074345 -0.445004 -0.117901 -0.737467 0.000000 0.675383
-0.086537 -0.401674 -0.238995 -0.850751 0.022020 -0.525108
-0.087735 -0.404232 -0.236837 -0.873424 0.002831 -0.486952
-0.091334 -0.404359 -0.142955 -0.903116 0.003980 0.429379
-0.074345 -0.402622 -0.117901 -0.737718 0.011768 0.675007
-0.081516 -0.364235 -0.244174 -0.799791 0.037822 -0.599086
-0.086918 -0.363161 -0.235574 -0.873810 0.034737 -0.485025
-0.090499 -0.362012 -0.144478 -0.906962 0.035486 0.419715
-0.071879 -0.364062 -0.117140 -0.718601 0.034855 0.694548
-0.082083 -0.321616 -0.240767 -0.829102 0.034509 -0.558031
-0.086589 -0.322455 -0.233251 -0.877302 0.034842 -0.478672
-0.091208 -0.321377 -0.149712 -0.922551 0.034529 0.384328
-0.070144 -0.321922 -0.117511 -0.709459 0.034460 0.703903
-0.082105 -0.284285 -0.238464 -0.844805 0.033490 -0.534025
-0.087133 -0.284538 -0.229555 -0.895945 0.033813 -0.442876
-0.091290 -0.281967 -0.153583 -0.940752 0.037437 0.337023
-0.066586 -0.283423 -0.115975 -0.688564 0.034733 0.724343
-0.077003 -0.244669 -0.243383 -0.807226 0.035170 -0.589195
-0.087863 -0.243539 -0.224304 -0.918431 0.034738 -0.394054
-0.091418 -0.239084 -0.158967 -0.958302 0.034185 0.283704
-0.089887 -0.242665 -0.153673 -0.938558 0.036255 0.343211
-0.066584 -0.242901 -0.117916 -0.697127 0.035497 0.716069
-0.077501 -0.201460 -0.240039 -0.820223 0.034739 -0.570988
-0.086541 -0.204634 -0.223955 -0.919815 0.034676 -0.390816
-0.091375 -0.202323 -0.163204 -0.968102 0.035302 0.248058
-0.088992 -0.203968 -0.155313 -0.942674 0.035863 0.331782
-0.062279 -0.202591 -0.115757 -0.662134 0.035018 0.748567
-0.076741 -0.163668 -0.238871 -0.823473 0.033902 -0.566341
-0.087250 -0.164707 -0.218709 -0.937871 0.033680 -0.345346
-0.090931 -0.161774 -0.167996 -0.980084 0.034210 0.195616
-0.088104 -0.165222 -0.156938 -0.946595 0.035009 0.320520
-0.061613 -0.164079 -0.116938 -0.664609 0.034192 0.746408
-0.071565 -0.122264 -0.243544 -0.781309 0.035962 -0.623108
-0.086622 -0.123000 -0.215945 -0.947203 0.035397 -0.318676
-0.090902 -0.123668 -0.196773 -0.992782 0.035365 -0.114603
-0.086678 -0.125375 -0.157041 -0.928309 0.027083 0.370823
-0.057871 -0.121649 -0.115711 -0.631577 0.035825 0.774485
-0.072995 -0.084470 -0.239433 -0.803488 0.035508 -0.594262
-0.086981 -0.081569 -0.210060 -0.964958 0.036863 -0.259802
-0.089721 -0.084482 -0.194918 -0.994291 0.035726 -0.100547
-0.084546 -0.083602 -0.155346 -0.937471 0.036330 0.346162
-0.057181 -0.083071 -0.116933 -0.639234 0.035764 0.768180
-0.061704 -0.021995 -0.302581 -0.802075 0.002606 -0.597217
-0.090474 -0.022087 -0.272419 0.334297 -0.176890 -0.925719
-0.087251 -0.043474 -0.204020 -0.980971 0.000000 -0.194155
-0.088294 -0.045232 -0.197575 -0.991428 0.000000 -0.130654
-0.090466 -0.025920 -0.153683 0.000004 -0.983500 0.180907
-0.089853 -0.025920 -0.116581 0.000000 -1.000000 0.000000
-0.066734 -0.008239 -0.073356 -0.949375 -0.299384 0.095161
-0.090271 0.008480 -0.278300 0.168621 -0.218731 -0.961105
-0.088506 -0.001697 -0.275620 0.358489 -0.179540 -0.916107
-0.089499 -0.001728 -0.226855 0.011079 -0.167755 -0.985767
-0.091220 0.031831 -0.158283 -0.495528 0.201578 0.844878
-0.090033 -0.001945 -0.153398 -0.802629 0.162683 0.573866
-0.089626 -0.001914 -0.106244 0.334807 0.173432 0.926189
-0.071495 0.020945 -0.076250 -0.899418 -0.077927 0.430087
-0.087883 0.038496 -0.283318 -0.087128 -0.209098 -0.974006
-0.090737 0.036813 -0.256767 -0.831565 0.163354 0.530863
-0.089121 0.036167 -0.232648 0.221145 -0.146088 -0.964237
-0.090686 0.036777 -0.158432 -0.591104 0.160177 0.790531
-0.089499 0.036039 -0.154868 -0.945762 -0.003451 0.324842
-0.090185 0.036440 -0.113123 0.316510 0.170830 0.933080
-0.071499 0.036176 -0.076239 -0.591044 -0.000698 0.806639
-0.086749 0.076180 -0.285275 -0.658851 0.000699 -0.752273
-0.091437 0.076910 -0.273509 -0.911414 0.180713 0.369685
-0.084312 0.077429 -0.237886 0.164600 -0.170417 -0.971527
-0.090666 0.077435 -0.158202 -0.969940 -0.001783 0.243339
-0.090384 0.074985 -0.157278 -0.990509 0.004699 0.137370
-0.086577 0.110560 -0.088078 -0.963303 -0.137886 0.230291
-0.071489 0.078059 -0.076249 -0.253671 0.000645 0.967290
-0.086735 0.116811 -0.285249 -0.951700 0.000519 -0.307030
-0.089667 0.118281 -0.246158 0.279138 -0.164408 -0.946072
-0.091164 0.121608 -0.213133 -0.952809 0.038835 0.301076
-0.091296 0.136843 -0.158736 -0.742457 0.288710 -0.604486
-0.087129 0.117520 -0.128205 0.299885 0.152238 0.941750
-0.087017 0.114546 -0.088085 -0.687044 -0.242250 0.685044
-0.061996 0.162008 -0.278713 -0.528005 -0.308643 -0.791170
-0.087327 0.155925 -0.248855 -0.690760 -0.526409 -0.495726
-0.090412 0.156075 -0.128582 -0.718047 -0.523422 0.458736
-0.087568 0.163352 -0.117849 -0.771405 -0.214375 0.599148
-0.062133 0.196097 -0.278917 -0.436163 0.616698 -0.655321
-0.087508 0.196613 -0.255409 -0.606581 0.619240 -0.498600
-0.089553 0.198855 -0.236117 0.000000 1.000000 0.000000
-0.090588 0.203112 -0.195661 -0.994709 -0.000073 -0.102729
-0.090131 0.198036 -0.121135 -0.628476 0.615171 0.476007
-0.087568 0.197940 -0.117849 -0.612319 0.614281 0.497719
-0.073537 0.236075 -0.240263 -0.807970 0.000000 -0.589224
-0.087125 0.237216 -0.213053 -0.956153 -0.001030 -0.292865
-0.090532 0.235205 -0.196192 -0.994519 0.000000 -0.104560
-0.086453 0.269792 -0.157988 -0.948394 -0.000370 0.317094
-0.057668 0.237548 -0.116073 -0.633893 0.000000 0.773420
-0.073537 0.277432 -0.240263 -0.807970 0.000000 -0.589224
-0.086888 0.276537 -0.213903 -0.953760 0.001509 -0.300566
-0.090532 0.277020 -0.196192 -0.994519 0.000000 -0.104560
-0.085169 0.277883 -0.154205 -0.935555 0.000000 0.353181
-0.057668 0.276169 -0.116073 -0.633893 0.000000 0.773420
-0.073537 0.315342 -0.240263 -0.807970 0.000000 -0.589224
-0.086466 0.314116 -0.215234 -0.971499 0.010124 -0.236826
-0.090532 0.315348 -0.196192 -0.994519 0.000000 -0.104560
-0.086455 0.324904 -0.157992 -0.949511 0.007521 0.313645
-0.057668 0.314792 -0.116073 -0.633893 0.000000 0.773420
-0.073553 0.356688 -0.240286 -0.806377 0.001015 -0.591402
-0.086771 0.357300 -0.213837 -0.959978 -0.000795 -0.280074
-0.090482 0.357179 -0.196110 -0.994123 -0.000974 -0.108256
-0.085151 0.355620 -0.154229 -0.934047 -0.000968 0.357149
-0.057656 0.357288 -0.116092 -0.644273 -0.001021 0.764795
-0.073529 0.398050 -0.240248 -0.806629 0.001015 -0.591057
-0.086780 0.397149 -0.213950 -0.952500 0.002508 -0.304528
-0.090514 0.395500 -0.196162 -0.994051 -0.000973 -0.108910
-0.086452 0.408204 -0.157947 -0.953319 -0.000476 0.301965
-0.057677 0.395907 -0.116058 -0.643300 -0.000701 0.765614
-0.073506 0.435967 -0.240213 -0.806659 0.001014 -0.591016
-0.086875 0.435577 -0.213762 -0.953947 0.000202 -0.299974
-0.090548 0.437303 -0.196219 -0.994438 -0.000969 -0.105318
-0.086451 0.444296 -0.157883 -0.953126 -0.000302 0.302573
-0.057661 0.438401 -0.116093 -0.634915 0.001006 0.772582
-0.073482 0.477332 -0.240175 -0.808997 0.001013 -0.587812
-0.086676 0.476388 -0.214391 -0.949095 0.002199 -0.314983
-0.090742 0.477100 -0.193035 -0.997101 0.000999 -0.076077
-0.086489 0.488899 -0.157968 -0.949978 -0.000753 0.312317
-0.057643 0.477033 -0.116128 -0.627199 0.001009 0.778858
-0.073460 0.515252 -0.240140 -0.808997 0.001013 -0.587812
-0.087004 0.518475 -0.213367 -0.949725 -0.000487 -0.313084
-0.090696 0.516385 -0.193120 -0.997211 0.001002 -0.074633
-0.086485 0.514674 -0.157935 -0.949519 -0.000800 0.313708
-0.057625 0.515666 -0.116164 -0.619367 0.001011 0.785101
-0.073447 0.556616 -0.240120 -0.808997 -0.001014 -0.587812
-0.087019 0.555066 -0.213266 -0.951066 0.000370 -0.308989
-0.090706 0.555649 -0.193095 -0.997246 -0.004402 -0.074036
-0.086510 0.587259 -0.157959 -0.949339 -0.000867 0.314252
-0.057616 0.558159 -0.116182 -0.615616 -0.001011 0.788045
-0.073472 0.597965 -0.240158 -0.808997 -0.001012 -0.587812
-0.086864 0.595172 -0.213810 -0.991118 0.047835 0.124087
-0.090424 0.595035 -0.193599 -0.509126 0.635451 0.580511
-0.086482 0.594878 -0.157867 -0.949511 -0.000706 0.313732
-0.057634 0.596776 -0.116147 -0.623259 -0.001009 0.782014
-0.073494 0.635868 -0.240193 -0.808401 -0.001014 -0.588632
-0.086644 0.635689 -0.214536 -0.947211 -0.002186 -0.320604
-0.071618 0.636765 -0.195363 -0.997802 0.000000 0.066260
-0.083255 0.634816 -0.149620 -0.999347 0.000376 0.036126
-0.057651 0.635393 -0.116111 -0.631037 -0.001007 0.775752
-0.073518 0.677215 -0.240231 -0.806859 -0.001014 -0.590743
-0.086953 0.674986 -0.213539 -0.951970 -0.000048 -0.306191
-0.071618 0.676194 -0.195364 -0.997802 0.000001 0.066259
-0.083240 0.677534 -0.149648 -0.999578 0.000371 0.029032
-0.057671 0.677869 -0.116072 -0.639455 -0.001005 0.768827
-0.073542 0.718560 -0.240269 -0.806708 -0.001014 -0.590950
-0.086843 0.718388 -0.213826 -0.954419 0.000771 -0.298471
-0.086551 0.743551 -0.158082 -0.943482 -0.315211 -0.102393
-0.086479 0.745888 -0.157877 -0.938335 -0.016427 0.345336
-0.057667 0.716495 -0.116075 -0.644238 0.001021 0.764825
-0.073564 0.756459 -0.240304 -0.806312 -0.000180 -0.591490
-0.086960 0.757202 -0.213217 -0.979323 0.059927 0.193222
-0.090525 0.757883 -0.196185 -0.993795 0.010056 -0.110775
-0.086499 0.775955 -0.157946 -0.949732 -0.000226 0.313064
-0.057645 0.755130 -0.116108 -0.644305 0.001021 0.764768
-0.073564 0.797819 -0.240304 -0.799381 -0.000159 -0.600825
-0.087161 0.798184 -0.213127 -0.956574 0.000096 -0.291490
-0.090731 0.795179 -0.193056 -0.996566 0.005323 -0.082634
-0.085111 0.794827 -0.154312 -0.931702 0.002737 0.363213
-0.057673 0.797605 -0.116075 -0.636190 0.000000 0.771532
-0.046850 -0.806355 -0.238903 -0.653811 -0.433003 -0.620516
-0.049821 -0.806355 -0.234611 -0.653171 -0.433296 -0.620985
-0.049375 -0.806355 -0.196446 0.000000 -1.000000 0.000000
-0.048896 -0.806355 -0.154811 0.000000 -1.000000 0.000000
-0.013596 -0.806355 -0.117670 -0.188508 -0.641944 0.743218
-0.047770 -0.802398 -0.238820 -0.677133 0.000000 -0.735861
-0.050268 -0.802648 -0.236322 -0.707107 0.000000 -0.707107
-0.050364 -0.803543 -0.136855 -0.072536 0.997186 -0.018910
-0.016533 -0.803950 -0.117646 0.067620 0.994053 0.085359
-0.047770 -0.764272 -0.238820 -0.677133 0.000000 -0.735861
-0.050268 -0.764511 -0.236322 -0.707107 0.000000 -0.707107
-0.050364 -0.764630 -0.136855 -0.709701 0.000000 0.704503
-0.016533 -0.765019 -0.117646 -0.232935 0.000000 0.972492
-0.047770 -0.722678 -0.238820 -0.677133 0.000000 -0.735861
-0.050268 -0.722907 -0.236322 -0.707107 0.000000 -0.707107
-0.050364 -0.721827 -0.136855 -0.709701 0.000000 0.704503
-0.016533 -0.722194 -0.117646 -0.232935 0.000000 0.972492
-0.047770 -0.684551 -0.238820 -0.677133 0.000000 -0.735861
-0.050268 -0.684768 -0.236322 -0.707107 0.000000 -0.707107
-0.050364 -0.682916 -0.136855 -0.709701 0.000000 0.704503
-0.016533 -0.683263 -0.117646 -0.232935 0.000000 0.972492
-0.047770 -0.642957 -0.238820 -0.677133 0.000000 -0.735861
-0.050268 -0.643161 -0.236322 -0.707107 0.000000 -0.707107
-0.050364 -0.644005 -0.136855 -0.709701 0.000000 0.704503
-0.016533 -0.644332 -0.117646 -0.232935 0.000000 0.972492
-0.047770 -0.601363 -0.238820 -0.677133 0.000000 -0.735861
-0.050268 -0.601554 -0.236322 -0.707107 0.000000 -0.707106
-0.050364 -0.605093 -0.136855 -0.709701 0.000000 0.704503
-0.016544 -0.601502 -0.117632 -0.233171 0.000048 0.972436
-0.047770 -0.563236 -0.238820 -0.677133 0.000000 -0.735861
-0.050268 -0.563414 -0.236322 -0.707107 0.000000 -0.707106
-0.050364 -0.562289 -0.136855 -0.709701 0.000000 0.704503
-0.047770 -0.521643 -0.238820 -0.677133 0.000000 -0.735861
-0.050268 -0.521807 -0.236322 -0.707107 0.000000 -0.707107
-0.050364 -0.523375 -0.136855 -0.709701 0.000000 0.704503
-0.042589 -0.461493 -0.278280 -0.312569 -0.521579 -0.793887
-0.047770 -0.483515 -0.238820 -0.677133 0.000000 -0.735861
-0.050268 -0.483667 -0.236322 -0.707107 0.000000 -0.707107
-0.050364 -0.484461 -0.136855 -0.709701 0.000000 0.704503
-0.048237 -0.462105 -0.115275 0.000000 -1.000000 0.000000
-0.041468 -0.443543 -0.278830 -0.417109 0.000000 -0.908856
-0.047671 -0.443422 -0.275787 -0.464133 0.000000 -0.885765
-0.049941 -0.444441 -0.098514 -0.496146 0.000000 0.868239
-0.041468 -0.402439 -0.278830 -0.416869 0.011808 -0.908890
-0.047671 -0.402330 -0.275787 -0.463973 0.012449 -0.885762
-0.049941 -0.402108 -0.098514 -0.496041 0.013970 0.868186
-0.037461 -0.361612 -0.279026 -0.366657 0.034911 -0.929701
-0.046887 -0.361439 -0.274627 -0.462282 0.034846 -0.886048
-0.049291 -0.363795 -0.099647 -0.495626 0.034759 0.867840
-0.033394 -0.324167 -0.279144 -0.347105 0.034738 -0.937183
-0.046749 -0.323144 -0.273212 -0.478826 0.031883 -0.877331
-0.048561 -0.321615 -0.100920 -0.495381 0.034759 0.867980
-0.032299 -0.283863 -0.278056 -0.344383 0.034771 -0.938185
-0.048367 -0.282923 -0.270698 -0.503545 0.034684 -0.863272
-0.051168 -0.283236 -0.104116 -0.528655 0.034739 0.848125
-0.028474 -0.245608 -0.278031 -0.296172 0.035292 -0.954482
-0.047569 -0.241905 -0.269515 -0.501960 0.034683 -0.864195
-0.050503 -0.244815 -0.105276 -0.528668 0.034739 0.848118
-0.021821 -0.203004 -0.278224 -0.229498 0.035617 -0.972657
-0.046837 -0.204265 -0.268430 -0.500509 0.034680 -0.865037
-0.049772 -0.202510 -0.106553 -0.528680 0.034739 0.848110
-0.012187 -0.163681 -0.278622 -0.136272 0.034274 -0.990078
-0.048966 -0.163158 -0.265445 -0.528690 0.034002 -0.848134
-0.051218 -0.163137 -0.109041 -0.555222 0.031852 0.831092
-0.048184 -0.122006 -0.264282 -0.530857 0.034005 -0.846779
-0.048402 -0.121624 -0.108950 -0.532302 0.034004 0.845872
-0.047467 -0.084243 -0.263215 -0.530320 0.034006 -0.847116
-0.050950 -0.083054 -0.112267 -0.563105 0.035649 0.825616
-0.050300 -0.025304 -0.307996 0.291038 -0.574306 -0.765159
-0.046837 -0.043000 -0.262276 -0.530160 0.000000 -0.847898
-0.050404 -0.044440 -0.113224 -0.561189 0.000000 0.827688
-0.051228 -0.025920 -0.075432 0.000000 -1.000000 0.000000
-0.049295 -0.001691 -0.308389 -0.371547 -0.000701 -0.928414
-0.051085 0.005456 -0.266688 -0.947884 0.117104 -0.296314
-0.046719 0.017524 -0.079302 0.702426 0.172060 0.690647
-0.046626 -0.005736 -0.073586 0.701428 0.169257 0.692351
-0.049293 0.035554 -0.308391 -0.449009 0.000680 -0.893527
-0.049373 0.035662 -0.277068 -0.582132 -0.224205 -0.781572
-0.047939 0.037803 -0.083007 0.704126 0.163048 0.691102
-0.026460 0.048004 -0.077728 -0.982334 -0.165384 0.087568
-0.042739 0.076227 -0.310807 -0.640057 0.000757 -0.768327
-0.047205 0.077225 -0.268970 -0.497193 -0.000287 -0.867640
-0.051296 0.074795 -0.088444 0.680993 0.167102 0.712969
-0.036578 0.108133 -0.075840 -0.984437 -0.170791 0.041403
-0.050597 0.133461 -0.278454 0.136018 0.962996 -0.232675
-0.051086 0.114670 -0.274724 0.579744 -0.252297 -0.774754
-0.048794 0.117454 -0.100516 0.472050 0.295712 0.830496
-0.037947 0.116748 -0.073283 -0.984344 -0.167869 0.053734
-0.047044 0.158368 -0.284698 -0.370803 -0.524659 -0.766315
-0.049492 0.155541 -0.091588 -0.391458 -0.527372 0.754082
-0.022179 0.163344 -0.077438 -0.190763 -0.213130 0.958220
-0.047255 0.196153 -0.287335 -0.336095 0.616959 -0.711619
-0.048607 0.198855 -0.274613 0.000000 1.000000 0.000000
-0.048163 0.197512 -0.086203 -0.348378 0.611999 0.709993
-0.022179 0.197942 -0.077438 -0.171363 0.613936 0.770530
-0.047957 0.235461 -0.263937 -0.523706 0.000000 -0.851899
-0.051447 0.237490 -0.111414 -0.565334 0.000000 0.824862
-0.047957 0.276708 -0.263937 -0.523706 0.000000 -0.851899
-0.051447 0.276105 -0.111414 -0.565334 0.000000 0.824862
-0.047957 0.317956 -0.263937 -0.523706 0.000000 -0.851899
-0.051447 0.318584 -0.111414 -0.565334 0.000000 0.824862
-0.047926 0.355774 -0.263897 -0.547172 -0.001018 -0.837019
-0.051381 0.357213 -0.111512 -0.559212 -0.001011 0.829024
-0.047949 0.397019 -0.263933 -0.536934 -0.001018 -0.843624
-0.051402 0.395826 -0.111479 -0.560204 -0.001012 0.828354
-0.047957 0.438266 -0.263946 -0.526624 0.001012 -0.850098
-0.051425 0.438300 -0.111443 -0.568779 -0.001012 0.822490
-0.047936 0.476086 -0.263914 -0.517097 0.001015 -0.855926
-0.051445 0.476911 -0.111410 -0.568769 -0.001011 0.822497
-0.047913 0.517345 -0.263879 -0.506632 0.001014 -0.862162
-0.048177 0.515520 -0.109353 -0.512034 0.001013 0.858965
-0.047903 0.558599 -0.263864 -0.502154 -0.001014 -0.864777
-0.048168 0.558001 -0.109371 -0.509950 -0.001014 0.860203
-0.047924 0.596402 -0.263896 -0.511777 -0.001012 -0.859118
-0.048186 0.596608 -0.109337 -0.516223 -0.001013 0.856454
-0.047947 0.637640 -0.263931 -0.522210 -0.001016 -0.852816
-0.051435 0.635238 -0.111426 -0.568749 0.001012 0.822510
-0.047960 0.675445 -0.263951 -0.531695 0.001017 -0.846936
-0.051412 0.677724 -0.111462 -0.564520 0.001012 0.825419
-0.047938 0.716705 -0.263915 -0.541961 0.001014 -0.840403
-0.051391 0.716349 -0.111495 -0.559213 0.001012 0.829024
-0.047915 0.757966 -0.263880 -0.548944 0.001017 -0.835859
-0.051371 0.754974 -0.111528 -0.559212 0.001012 0.829024
-0.047977 0.795747 -0.263972 -0.525477 0.000000 -0.850808
-0.049818 0.806355 -0.234612 0.000000 1.000000 0.000000
-0.049382 0.806355 -0.196445 0.000000 1.000000 0.000000
-0.048891 0.806355 -0.154816 0.000000 1.000000 0.000000
-0.048225 0.797384 -0.109260 -0.533573 -0.000926 0.845753
-0.010621 -0.806355 -0.256119 -0.649161 -0.444637 -0.617161
-0.010568 -0.806355 -0.234611 0.000000 -1.000000 0.000000
-0.010473 -0.806355 -0.196446 0.000000 -1.000000 0.000000
-0.010372 -0.806355 -0.154811 0.000000 -1.000000 0.000000
-0.007117 -0.806355 -0.116438 0.309919 -0.642766 0.700572
-0.009651 -0.803895 -0.256696 -0.141818 -0.980365 -0.137015
0.018540 -0.805058 -0.118217 0.984612 0.146796 0.094816
-0.008373 -0.804779 -0.116172 0.106105 0.990908 0.082720
-0.009650 -0.762223 -0.256696 -0.137558 0.000014 -0.990494
0.018462 -0.763875 -0.118193 0.260039 -0.000351 0.965598
-0.008373 -0.761910 -0.116172 -0.118041 0.000000 0.993009
-0.009649 -0.724024 -0.256695 -0.137587 0.000010 -0.990490
0.018122 -0.724299 -0.118087 0.255438 -0.000394 0.966825
-0.008373 -0.722939 -0.116172 -0.118041 0.000000 0.993009
-0.009647 -0.682352 -0.256695 -0.137654 0.000014 -0.990480
0.017954 -0.683847 -0.118034 0.768656 0.000000 0.639662
-0.008373 -0.683967 -0.116172 -0.118041 0.000000 0.993009
-0.009646 -0.644152 -0.256695 -0.137709 0.000014 -0.990473
0.018510 -0.642086 -0.118208 0.256534 -0.001487 0.966534
-0.008373 -0.644995 -0.116172 -0.118041 0.000000 0.993009
-0.009672 -0.602475 -0.256737 -0.138770 -0.000003 -0.990325
-0.007231 -0.578033 -0.133542 0.278241 0.735376 0.617903
-0.008376 -0.602128 -0.116176 -0.116018 0.000464 0.993247
-0.010565 -0.562728 -0.239658 0.040127 0.000000 -0.999195
-0.011359 -0.561917 -0.134305 0.389895 0.000000 0.920859
0.017675 -0.563963 -0.117916 -0.505486 0.004564 0.862823
-0.010565 -0.524162 -0.239658 0.040127 0.000000 -0.999195
-0.011359 -0.522755 -0.134305 0.389895 0.000000 0.920859
0.017919 -0.524751 -0.117992 -0.503691 0.004822 0.863871
-0.007614 -0.462105 -0.287384 -0.053475 -0.706857 -0.705332
-0.010652 -0.481747 -0.256597 0.073327 -0.587989 -0.805538
-0.011367 -0.481633 -0.134305 -0.125087 -0.593836 0.794803
-0.008375 -0.477415 -0.116186 0.319123 -0.506356 0.801102
-0.009849 -0.441740 -0.287291 -0.096008 0.000000 -0.995380
-0.008320 -0.442277 -0.085713 -0.078280 0.000000 0.996931
-0.009849 -0.403923 -0.287291 -0.095698 0.004495 -0.995400
-0.008320 -0.403655 -0.085713 -0.077829 0.007102 0.996941
-0.008946 -0.362893 -0.285998 -0.086000 0.035487 -0.995663
-0.007521 -0.361361 -0.087064 -0.070563 0.035094 0.996890
-0.007982 -0.321827 -0.284618 -0.075668 0.035269 -0.996509
-0.011041 -0.322661 -0.088699 -0.113815 0.034183 0.992914
-0.007098 -0.284136 -0.283351 -0.066363 0.035072 -0.997179
-0.010306 -0.284160 -0.089941 -0.106691 0.034073 0.993708
-0.010143 -0.242790 -0.281711 -0.106941 0.033939 -0.993686
0.028402 -0.242185 -0.277927 0.295645 0.035287 -0.954646
-0.009487 -0.241766 -0.091326 -0.098697 0.035575 0.994481
-0.009210 -0.201593 -0.280371 -0.096722 0.035704 -0.994671
0.017796 -0.168182 -0.277915 0.191650 0.034094 -0.980871
-0.008717 -0.203188 -0.092629 -0.091115 0.035447 0.995209
-0.008326 -0.163785 -0.279097 -0.086265 0.035642 -0.995634
-0.011435 -0.141710 -0.277969 -0.126235 0.035711 -0.991357
-0.007946 -0.164573 -0.093936 -0.082915 0.035477 0.995925
-0.003393 -0.126025 -0.278036 -0.042917 0.034563 -0.998481
-0.007359 -0.122487 -0.277703 -0.074913 0.035406 -0.996561
-0.011351 -0.121969 -0.095789 -0.124830 0.034151 0.991590
-0.006472 -0.084584 -0.276423 -0.064672 0.035189 -0.997286
-0.010622 -0.083289 -0.097029 -0.118271 0.034054 0.992397
-0.007992 -0.022152 -0.314377 -0.903774 0.181541 -0.387603
-0.009751 -0.043146 -0.275099 -0.109695 0.000000 -0.993965
-0.010034 -0.044568 -0.098029 -0.113131 -0.000000 0.993580
-0.009486 -0.025920 -0.075426 0.000000 -1.000000 0.000000
0.001192 0.011309 -0.317993 -0.404922 0.002518 -0.914348
-0.006498 -0.006226 -0.310149 -0.924471 0.178034 -0.337131
0.027968 -0.001718 -0.277281 -0.273763 0.000847 -0.961797
0.007804 0.013495 -0.079040 0.961187 0.162698 0.222822
-0.008525 -0.001915 -0.055377 -0.121526 -0.000708 0.992588
-0.006508 0.036176 -0.282506 -0.781464 0.201823 -0.590407
0.027997 0.036080 -0.277328 0.416890 -0.000167 -0.908957
-0.001686 0.071462 -0.079881 0.940028 0.160340 0.301061
-0.008533 0.036367 -0.055373 0.414919 0.000514 0.909858
-0.009158 0.078110 -0.281092 0.256878 0.001476 -0.966443
-0.006689 0.102489 -0.080711 0.926285 0.157596 0.342286
-0.007508 0.078037 -0.068048 0.894601 0.169000 0.413677
-0.010155 0.115351 -0.294679 0.906230 -0.165559 -0.389021
-0.006653 0.118214 -0.088184 0.876755 0.167743 0.450737
-0.009893 0.114834 -0.077949 0.772666 0.247831 0.584437
-0.009984 0.156089 -0.293481 -0.080197 -0.522498 -0.848861
-0.007593 0.156169 -0.079393 -0.059097 -0.527153 0.847713
-0.009810 0.163633 -0.075670 -0.081742 -0.197109 0.976968
-0.008665 0.197040 -0.297569 -0.082810 0.622068 -0.778571
-0.007131 0.201867 -0.277367 -0.083922 0.617710 -0.781915
-0.011154 0.203310 -0.096112 -0.114158 0.612614 0.782095
-0.009810 0.198284 -0.075670 -0.088680 0.615786 0.782907
-0.007131 0.236375 -0.277367 -0.078407 0.000000 -0.996921
-0.011154 0.238160 -0.096112 -0.122629 0.000000 0.992453
-0.007131 0.277786 -0.277367 -0.078407 0.000000 -0.996921
-0.011154 0.276881 -0.096112 -0.122629 0.000000 0.992453
-0.007131 0.315746 -0.277367 -0.078407 0.000000 -0.996921
-0.011154 0.315603 -0.096112 -0.122629 0.000000 0.992453
-0.007067 0.357173 -0.277282 -0.061444 -0.001030 -0.998110
-0.011132 0.358208 -0.096167 -0.130736 -0.000997 0.991417
-0.007096 0.398578 -0.277323 -0.066392 -0.001037 -0.997793
-0.011138 0.396934 -0.096155 -0.130931 0.001024 0.991391
-0.007088 0.436541 -0.277311 -0.076016 0.000995 -0.997106
-0.011116 0.435668 -0.096192 -0.126602 0.001022 0.991953
-0.007062 0.477962 -0.277272 -0.086300 0.001005 -0.996269
-0.011092 0.478276 -0.096233 -0.116379 0.001017 0.993204
-0.007038 0.515933 -0.277236 -0.095945 0.001006 -0.995386
-0.011070 0.517012 -0.096270 -0.107225 0.001013 0.994234
-0.007025 0.557352 -0.277217 -0.100972 -0.001009 -0.994889
-0.011058 0.555745 -0.096290 -0.104533 -0.001011 0.994521
-0.010961 0.598356 -0.276845 -0.108960 -0.001014 -0.994046
-0.011082 0.598337 -0.096249 -0.112215 -0.001016 0.993684
-0.007076 0.636703 -0.277292 -0.080812 -0.000998 -0.996729
-0.011104 0.637056 -0.096212 -0.121446 -0.001019 0.992598
-0.007102 0.678101 -0.277331 -0.070651 -0.000993 -0.997501
-0.011126 0.675773 -0.096175 -0.130518 -0.001023 0.991446
-0.007081 0.716070 -0.277302 -0.061653 0.001029 -0.998097
-0.011141 0.718365 -0.096151 -0.130857 0.000998 0.991401
-0.007052 0.757494 -0.277261 -0.061236 0.001033 -0.998123
-0.011121 0.757101 -0.096187 -0.130567 0.000997 0.991439
-0.010971 0.798376 -0.276861 -0.145342 0.002365 -0.989379
-0.010568 0.806355 -0.234607 0.000000 1.000000 0.000000
-0.010471 0.806355 -0.196439 0.000000 1.000000 0.000000
-0.010371 0.806355 -0.154814 0.000000 1.000000 0.000000
-0.011084 0.795841 -0.096250 -0.139705 0.003611 0.990187
0.028556 -0.806355 -0.249019 0.148814 -0.975297 -0.163251
0.028685 -0.806355 -0.234611 0.000000 -1.000000 0.000000
0.031421 -0.806355 -0.196446 0.000000 -1.000000 0.000000
0.031115 -0.806355 -0.154811 0.000000 -1.000000 0.000000
0.030508 -0.802160 -0.250391 0.423609 0.000000 -0.905845
0.052768 -0.802899 -0.233822 0.030671 -0.989242 -0.143037
0.068462 -0.804427 -0.168447 -0.026501 -0.981634 0.188922
0.032420 -0.804566 -0.123551 -0.956301 0.127762 -0.262993
0.030508 -0.764045 -0.250391 0.423609 -0.000000 -0.905845
0.052768 -0.764749 -0.233822 0.744104 0.000000 -0.668064
0.068462 -0.761365 -0.168447 0.968029 0.000000 0.250836
0.032420 -0.765223 -0.123551 0.461120 0.000000 0.887338
0.030508 -0.722466 -0.250391 0.423609 0.000000 -0.905845
0.052768 -0.723132 -0.233822 0.744104 0.000000 -0.668064
0.068462 -0.722218 -0.168447 0.968029 0.000000 0.250836
0.032420 -0.721945 -0.123551 0.461120 0.000000 0.887338
0.030508 -0.684352 -0.250391 0.423609 0.000000 -0.905845
0.052768 -0.681515 -0.233822 0.744104 0.000000 -0.668064
0.068462 -0.683070 -0.168447 0.968029 0.000000 0.250836
0.032420 -0.682601 -0.123551 0.461120 0.000000 0.887338
0.030508 -0.642774 -0.250391 0.423609 0.000000 -0.905845
0.052768 -0.643365 -0.233822 0.744104 0.000000 -0.668064
0.068462 -0.643925 -0.168447 0.968029 0.000000 0.250836
0.032420 -0.643257 -0.123551 0.461120 0.000000 0.887338
0.030508 -0.604658 -0.250391 0.423609 0.000000 -0.905845
0.052768 -0.601745 -0.233822 0.744104 0.000000 -0.668064
0.068462 -0.604782 -0.168447 0.968030 0.000000 0.250836
0.032420 -0.603914 -0.123551 0.461120 0.000000 0.887338
0.030508 -0.563077 -0.250391 0.423609 0.000000 -0.905845
0.052768 -0.563593 -0.233822 0.744104 0.000000 -0.668064
0.068462 -0.561724 -0.168447 0.968029 0.000000 0.250836
0.032420 -0.564570 -0.123551 0.461120 0.000000 0.887338
0.030508 -0.521496 -0.250391 0.423609 0.000000 -0.905845
0.052768 -0.521972 -0.233822 0.744104 0.000000 -0.668064
0.068462 -0.522580 -0.168447 0.968030 0.000000 0.250836
0.032420 -0.525227 -0.123551 0.461120 0.000000 0.887338
0.028946 -0.461614 -0.283500 0.346348 -0.596878 -0.723726
0.030508 -0.483379 -0.250391 0.423609 0.000000 -0.905845
0.052768 -0.483820 -0.233822 0.744104 0.000000 -0.668064
0.068462 -0.483436 -0.168447 0.968029 0.000000 0.250836
0.032420 -0.481949 -0.123551 0.461120 0.000000 0.887338
0.031604 -0.462105 -0.115275 0.000000 -1.000000 0.000000
0.030591 -0.445947 -0.283043 0.302507 -0.000425 -0.953147
0.043388 -0.444428 -0.277888 0.427872 0.000000 -0.903840
0.030425 -0.442052 -0.089977 0.300408 0.000000 0.953811
0.030243 -0.404638 -0.283164 0.306302 0.011631 -0.951863
0.043388 -0.402606 -0.277888 0.429167 0.011323 -0.903154
0.030425 -0.403103 -0.089977 0.301396 0.010107 0.953445
0.032729 -0.363129 -0.280835 0.324405 0.035958 -0.945234
0.038541 -0.343183 -0.277943 0.389559 0.031422 -0.920465
0.031501 -0.364415 -0.091744 0.313371 0.036280 0.948937
0.033393 -0.324167 -0.279145 0.347067 0.034736 -0.937197
0.033186 -0.289302 -0.277929 0.347088 0.034736 -0.937189
0.032741 -0.321807 -0.093783 0.327339 0.035649 0.944234
0.029811 -0.283212 -0.278953 0.306196 0.036913 -0.951253
0.032564 -0.283165 -0.277932 0.347082 0.034737 -0.937191
0.068210 -0.272048 -0.118064 0.701287 0.035533 0.711993
0.030168 -0.283495 -0.094250 0.313256 0.034497 0.949042
0.031301 -0.241750 -0.276865 0.323013 0.036037 -0.945708
0.068190 -0.244262 -0.119378 0.714417 0.034433 0.698873
0.029124 -0.243743 -0.095337 0.303472 0.036716 0.952133
0.032671 -0.203670 -0.274946 0.348705 0.034653 -0.936592
0.063468 -0.176003 -0.118143 0.683739 0.034452 0.728913
0.032407 -0.202642 -0.098076 0.347126 0.034734 0.937175
0.033470 -0.163259 -0.273169 0.352502 0.034253 -0.935184
0.063390 -0.163597 -0.118650 0.681933 0.033897 0.730629
0.031474 -0.162099 -0.099215 0.336298 0.034702 0.941116
0.029711 -0.123594 -0.273114 0.323609 0.035450 -0.945526
0.062087 -0.124429 -0.119246 -0.631752 0.128830 0.764390
0.032581 -0.123131 -0.101047 0.357153 0.034266 0.933417
0.031208 -0.081896 -0.271011 0.341512 0.037123 -0.939144
0.058376 -0.077367 -0.118215 0.648719 0.035568 0.760197
0.030312 -0.083101 -0.101668 0.339642 0.034652 0.939916
0.032550 -0.022546 -0.287017 0.185832 -0.627781 -0.755882
0.032331 -0.043592 -0.269431 0.363100 0.000000 -0.931750
0.058425 -0.042585 -0.119435 0.658604 -0.000505 0.752490
0.033386 -0.044453 -0.104072 0.370157 0.000000 0.928969
0.037531 -0.023670 -0.077841 -0.622004 -0.450385 0.640519
0.030421 -0.002638 -0.278136 0.257947 0.283619 -0.923592
0.029928 -0.002192 -0.277161 -0.420171 0.303464 -0.855199
0.028689 -0.004711 -0.084775 -0.833949 -0.155751 0.529406
0.032939 -0.001939 -0.077713 -0.794801 -0.166719 0.583521
0.028555 0.058424 -0.284984 0.988170 -0.152769 0.013488
0.031344 0.036066 -0.276140 0.337734 -0.001665 -0.941240
0.043449 0.067493 -0.102091 0.896608 0.025183 0.442109
0.028713 0.036799 -0.072254 -0.802720 -0.175158 0.570053
0.028615 0.075662 -0.313258 0.839236 -0.246226 -0.484825
0.031372 0.077295 -0.276175 0.818275 0.000360 -0.574827
0.038464 0.101330 -0.099419 0.580505 0.103239 0.807685
0.029849 0.075259 -0.059298 -0.385026 -0.189806 0.903177
0.029653 0.118488 -0.314582 0.226238 -0.000805 -0.974072
0.030087 0.137675 -0.277651 0.453065 0.056880 -0.889661
0.068471 0.136080 -0.120078 0.782215 -0.080835 0.617742
0.028582 0.138403 -0.094435 0.237955 0.396903 0.886479
0.029301 0.117675 -0.058422 0.226044 -0.000718 0.974117
0.030005 0.157515 -0.290578 0.240517 -0.520351 -0.819381
0.056634 0.155557 -0.277385 0.455123 -0.520992 -0.722101
0.032382 0.153708 -0.085695 0.263237 -0.524562 0.809655
0.032488 0.195541 -0.293045 0.190239 0.642259 -0.742504
0.031842 0.198855 -0.274612 0.000003 0.953447 -0.301561
0.063107 0.203573 -0.120906 0.447057 0.608615 0.655536
0.029988 0.197774 -0.079309 0.224275 0.613326 0.757319
0.028641 0.238034 -0.272998 0.313769 0.000339 -0.949499
0.063107 0.235196 -0.120906 -0.624741 0.000000 0.780832
0.032911 0.236540 -0.101594 0.364288 0.000000 0.931286
0.030107 0.276852 -0.272542 0.329951 0.000000 -0.943998
0.063107 0.274726 -0.120906 -0.624741 0.000000 0.780832
0.032911 0.275635 -0.101594 0.364288 0.000000 0.931286
0.030107 0.318641 -0.272542 0.329951 0.000000 -0.943998
0.063107 0.318210 -0.120906 -0.624741 0.000000 0.780832
0.032911 0.318638 -0.101594 0.364288 0.000000 0.931286
0.030205 0.356977 -0.272411 0.334462 -0.001079 -0.942409
0.063236 0.357769 -0.121120 -0.626274 -0.004760 0.779589
0.033046 0.357764 -0.101817 0.363649 -0.001030 0.931535
0.030162 0.395275 -0.272470 0.333835 -0.001085 -0.942631
0.063136 0.397275 -0.120959 -0.626988 -0.004761 0.779014
0.033012 0.396856 -0.101761 0.364609 -0.001029 0.931160
0.030191 0.437073 -0.272429 0.334183 0.000978 -0.942508
0.063077 0.436787 -0.120864 -0.626354 0.003534 0.779530
0.032978 0.435945 -0.101704 0.364270 -0.001029 0.931293
0.030229 0.475393 -0.272376 0.331490 0.000982 -0.943458
0.063151 0.476337 -0.120984 -0.625706 0.003534 0.780051
0.032944 0.475033 -0.101648 0.363553 -0.001031 0.931573
0.030269 0.517198 -0.272318 0.332224 0.000981 -0.943200
0.063224 0.515890 -0.121104 -0.625281 0.003534 0.780392
0.032933 0.518036 -0.101630 0.362775 0.000941 0.931876
0.030289 0.555516 -0.272289 0.332553 -0.000981 -0.943084
0.063266 0.555435 -0.121171 -0.625763 -0.003537 0.780005
0.032948 0.557139 -0.101654 0.362972 -0.000941 0.931800
0.030249 0.597295 -0.272347 0.331820 -0.000982 -0.943342
0.063192 0.594939 -0.121051 -0.626190 -0.003537 0.779662
0.032925 0.596228 -0.101616 0.362404 0.001031 0.932021
0.030212 0.635591 -0.272400 0.334008 -0.000979 -0.942570
0.063111 0.638389 -0.120919 -0.626662 -0.003537 0.779283
0.032959 0.635341 -0.101672 0.363336 0.001031 0.931657
0.030171 0.677367 -0.272458 0.334443 -0.000978 -0.942415
0.063090 0.677907 -0.120884 -0.626297 0.004759 0.779570
0.032996 0.678367 -0.101735 0.363923 0.001030 0.931428
0.030182 0.715682 -0.272443 0.334092 0.001083 -0.942540
0.063190 0.717480 -0.121045 -0.625578 0.004760 0.780147
0.033030 0.717484 -0.101791 0.364058 0.001030 0.931376
0.028576 0.754945 -0.273049 0.319160 0.000274 -0.947701
0.063290 0.757059 -0.121206 -0.624865 0.004760 0.780719
0.033064 0.756602 -0.101848 0.363869 0.001030 0.931450
0.030122 0.795748 -0.272535 0.331919 -0.000223 -0.943308
0.028683 0.806355 -0.234608 0.000000 1.000000 0.000000
0.031423 0.806355 -0.196439 0.000000 1.000000 0.000000
0.031114 0.806355 -0.154814 0.000000 1.000000 0.000000
0.032903 0.795619 -0.101576 0.359076 0.000000 0.933308
0.068689 -0.806355 -0.203365 0.627853 -0.462502 -0.626013
0.069269 -0.806355 -0.196573 0.738099 -0.674560 -0.013365
0.068624 -0.803954 -0.204116 0.929102 -0.165232 0.330858
0.070083 -0.802890 -0.196582 0.026014 -0.971569 -0.235323
0.068794 -0.764156 -0.203570 0.970633 0.001314 -0.240560
0.070083 -0.764408 -0.196582 0.990632 0.000000 -0.136555
0.068779 -0.721957 -0.203618 0.985072 -0.050704 0.164504
0.070083 -0.722427 -0.196582 0.990633 0.000000 -0.136555
0.068643 -0.682739 -0.204054 0.968428 0.002395 -0.249281
0.070083 -0.683945 -0.196582 0.990633 0.000000 -0.136555
0.068661 -0.646277 -0.203995 0.970718 -0.003210 -0.240199
0.070083 -0.641964 -0.196582 0.990633 0.000000 -0.136555
0.068726 -0.603638 -0.203787 0.970002 -0.002089 -0.243088
0.070083 -0.603480 -0.196582 0.990633 0.000000 -0.136555
0.068758 -0.565181 -0.203685 0.970645 -0.002074 -0.240509
0.070083 -0.561499 -0.196582 0.990632 0.000000 -0.136555
0.068595 -0.524318 -0.204208 0.968079 0.000000 -0.250644
0.070083 -0.523016 -0.196582 0.990633 0.000000 -0.136555
0.068943 -0.462105 -0.258581 0.276452 -0.852774 -0.443114
0.068595 -0.483845 -0.204208 0.968079 0.000000 -0.250644
0.070083 -0.484534 -0.196582 0.990632 0.000000 -0.136555
0.068761 -0.462105 -0.154039 0.000000 -1.000000 0.000000
0.071528 -0.462105 -0.115277 0.525653 -0.601846 0.601224
0.068678 -0.442130 -0.260773 0.951280 0.000000 -0.308328
0.087735 -0.442074 -0.236837 0.873323 0.000000 -0.487142
0.098303 -0.445036 -0.162548 0.971235 0.000000 0.238124
0.077375 -0.441929 -0.121431 -0.624468 0.000000 0.781050
0.071540 -0.444856 -0.115029 0.702318 0.000000 0.711863
0.068678 -0.403379 -0.260773 0.958560 -0.014012 -0.284546
0.087735 -0.404232 -0.236837 0.873424 0.002830 -0.486952
0.098532 -0.405018 -0.163662 0.975520 0.004041 0.219874
0.073400 -0.377305 -0.118084 0.731422 0.034841 0.681035
0.071540 -0.402488 -0.115029 0.702532 0.012185 0.711548
0.069069 -0.361734 -0.258501 0.688574 0.034736 -0.724334
0.086918 -0.363160 -0.235574 0.873804 0.034733 -0.485036
0.098287 -0.363279 -0.169045 0.982857 0.036686 0.180684
0.073030 -0.362013 -0.118468 0.731579 0.034840 0.680866
0.070885 -0.364141 -0.116191 0.705469 0.034519 0.707900
0.070865 -0.324273 -0.254997 0.716518 0.034462 -0.696716
0.083542 -0.302066 -0.237281 0.854392 0.031583 -0.518668
0.093423 -0.297173 -0.158614 0.954048 0.034751 0.297630
0.072907 -0.322041 -0.120459 0.744198 0.034998 0.667041
0.070486 -0.322295 -0.117818 -0.635843 0.133098 0.760256
0.070070 -0.283255 -0.253786 0.719804 0.034426 -0.693323
0.083333 -0.284119 -0.236372 0.860519 0.035213 -0.508199
0.093550 -0.285235 -0.160403 0.961104 0.035762 0.273860
0.073415 -0.284657 -0.123045 0.757661 0.034708 0.651725
0.068746 -0.284832 -0.117961 0.710391 0.033664 0.703001
0.068806 -0.246045 -0.253203 0.719154 0.033416 -0.694047
0.082452 -0.242943 -0.235011 0.865022 0.035059 -0.500507
0.093022 -0.243269 -0.164146 0.971090 0.036184 0.235957
0.072369 -0.243909 -0.124000 0.756517 0.034764 0.653049
0.070862 -0.204595 -0.248737 0.758309 0.034738 -0.650969
0.078295 -0.185155 -0.237918 0.834169 0.033469 -0.550492
0.093445 -0.201652 -0.174548 0.990254 0.032263 0.135488
0.070747 -0.202794 -0.124305 0.754641 0.034806 0.655214
0.068996 -0.162538 -0.248706 0.738803 0.030867 -0.673214
0.077802 -0.163988 -0.237366 0.836988 0.033103 -0.546219
0.088495 -0.165418 -0.158162 0.952650 0.034350 0.302123
0.072743 -0.164319 -0.128648 0.781175 0.033462 0.623415
0.071565 -0.122264 -0.243544 0.781289 0.035962 -0.623132
0.077953 -0.122469 -0.234408 0.852851 0.035741 -0.520929
0.088525 -0.124217 -0.163033 0.966315 0.036322 0.254788
0.071952 -0.121858 -0.130070 0.786130 0.035915 0.617017
0.068906 -0.082778 -0.244653 0.763627 0.034216 -0.644751
0.073521 -0.058996 -0.237238 0.821048 0.036721 -0.569677
0.088511 -0.083385 -0.169673 0.980306 0.036060 0.194164
0.073296 -0.084965 -0.134015 0.817031 0.035185 0.575519
0.068829 -0.043893 -0.243012 0.776760 -0.000640 -0.629797
0.072878 -0.043082 -0.237685 0.824204 -0.001895 -0.566290
0.088294 -0.045233 -0.197575 0.991428 0.000000 -0.130654
0.073188 -0.044550 -0.135803 0.821295 0.000000 0.570504
0.070732 -0.025920 -0.116578 0.000000 -1.000000 0.000000
0.068688 0.003156 -0.297471 0.892336 -0.185246 -0.411606
0.070873 -0.004085 -0.258392 -0.502913 0.149661 -0.851281
0.084627 -0.006084 -0.229952 0.965394 -0.120568 0.231251
0.095931 -0.003175 -0.188712 0.705378 -0.234939 0.668764
0.081630 -0.003633 -0.138029 0.996397 0.042212 -0.073562
0.072707 -0.001916 -0.105108 -0.500797 -0.161403 0.850383
0.068601 0.038214 -0.298631 0.525924 0.000813 -0.850531
0.069002 0.036174 -0.273212 0.925149 -0.163037 0.342810
0.087111 0.034543 -0.224346 0.955477 -0.104833 0.275816
0.093465 0.052871 -0.169550 0.865586 0.165382 -0.472662
0.078523 0.040159 -0.133200 0.976054 0.200696 -0.083900
0.071821 0.036909 -0.098109 -0.513441 -0.167765 0.841566
0.069502 0.076420 -0.298049 0.145355 0.470027 -0.870601
0.072014 0.076562 -0.263572 0.880382 -0.155409 0.448080
0.089370 0.074370 -0.218845 0.932228 -0.119323 0.341634
0.093386 0.075593 -0.169174 0.993374 -0.009177 -0.114557
0.073089 0.098377 -0.125862 0.997739 -0.009918 0.066472
0.071858 0.076516 -0.090137 -0.513480 -0.172262 0.840633
0.072237 0.116936 -0.291441 -0.505632 0.179668 -0.843834
0.071232 0.118600 -0.249314 0.888117 -0.457720 0.041727
0.083147 0.137660 -0.234481 0.738141 0.142820 -0.659356
0.093516 0.114683 -0.170254 0.669731 -0.025983 0.742149
0.073391 0.116385 -0.126276 0.497264 0.011579 0.867522
0.069327 0.116110 -0.083407 -0.534376 -0.174736 0.826988
0.073330 0.131021 -0.077734 0.037702 -0.137884 0.989731
0.070809 0.157983 -0.268830 0.556121 -0.524785 -0.644461
0.093461 0.153723 -0.236406 0.750320 -0.527245 -0.398789
0.103403 0.155035 -0.159904 0.820660 -0.530040 0.213483
0.082856 0.155825 -0.118430 0.654795 -0.530228 0.538611
0.071843 0.154271 -0.108232 0.577346 -0.523281 0.626777
0.068751 0.197905 -0.274096 0.601711 0.431470 -0.672144
0.077710 0.201850 -0.234032 0.659096 0.618172 -0.428318
0.088251 0.201815 -0.164095 0.922922 0.273111 0.271340
0.071737 0.203122 -0.130463 0.612182 0.612299 0.500323
0.070808 0.197537 -0.100671 0.497236 0.612099 0.614891
0.071317 0.235957 -0.243166 0.782544 0.000000 -0.622595
0.077710 0.236354 -0.234032 0.853379 0.000000 -0.521290
0.088362 0.235717 -0.164568 0.969833 -0.000000 0.243772
0.071737 0.237944 -0.130463 0.786434 0.000000 0.617674
0.071317 0.277293 -0.243166 0.782544 0.000000 -0.622595
0.077710 0.277760 -0.234032 0.853379 0.000000 -0.521290
0.088362 0.278573 -0.164568 0.969832 -0.000000 0.243772
0.071737 0.276635 -0.130463 0.786434 0.000000 0.617674
0.071317 0.318630 -0.243166 0.782544 0.000000 -0.622595
0.077710 0.315715 -0.234032 0.853379 0.000000 -0.521290
0.088362 0.317534 -0.164568 0.969833 0.000000 0.243772
0.071737 0.315323 -0.130463 0.786434 0.000000 0.617674
0.071293 0.356528 -0.243118 0.795965 -0.001018 -0.605342
0.077723 0.357123 -0.234056 0.856736 -0.000394 -0.515755
0.088316 0.356507 -0.164674 0.971836 -0.001044 0.235656
0.071700 0.357886 -0.130522 0.798990 -0.001018 0.601343
0.071317 0.397856 -0.243156 0.790648 -0.001024 -0.612270
0.077700 0.398536 -0.234019 0.856960 0.001007 -0.515381
0.088345 0.395461 -0.164621 0.971717 -0.001045 0.236147
0.073553 0.394202 -0.133010 0.809035 -0.001011 0.587759
0.071312 0.435747 -0.243150 0.784087 0.001007 -0.620649
0.077677 0.436499 -0.233983 0.855761 0.001008 -0.517370
0.088376 0.438307 -0.164562 0.970341 -0.000228 0.241740
0.071742 0.435258 -0.130447 0.788160 -0.000215 0.615470
0.071287 0.477089 -0.243114 0.776930 0.001010 -0.629586
0.077652 0.477915 -0.233944 0.850011 0.001015 -0.526765
0.088350 0.477275 -0.164609 0.969244 0.000985 0.246099
0.071721 0.477825 -0.130487 0.781892 0.001004 0.623413
0.071262 0.518432 -0.243079 0.769558 0.001015 -0.638576
0.077629 0.515881 -0.233908 0.848059 0.001015 -0.529901
0.088323 0.516245 -0.164657 0.968310 0.000989 0.249750
0.071702 0.516524 -0.130525 0.776861 0.001007 0.629671
0.071250 0.556328 -0.243063 0.766235 -0.001016 -0.642559
0.071860 0.592705 -0.198023 0.449060 0.799947 0.398033
0.070477 0.592176 -0.194868 0.699145 0.694532 0.169766
0.071691 0.555220 -0.130546 0.776969 -0.001006 0.629538
0.071275 0.597654 -0.243098 0.773704 -0.001012 -0.633547
0.073095 0.598368 -0.209443 0.047441 0.752756 0.656588
0.070487 0.595621 -0.194723 0.997805 0.000001 -0.066217
0.071712 0.597770 -0.130504 0.779300 -0.001006 0.626650
0.071298 0.635536 -0.243131 0.780363 -0.001008 -0.625326
0.071897 0.637236 -0.219728 0.425126 0.000000 0.905134
0.070282 0.637370 -0.197808 0.972301 0.000000 -0.233732
0.071732 0.636450 -0.130467 0.785040 -0.001001 0.619444
0.071323 0.676860 -0.243166 0.787423 -0.001006 -0.616412
0.071897 0.676941 -0.219728 0.425126 0.000000 0.905134
0.070282 0.676835 -0.197808 0.972287 0.000000 -0.233792
0.071733 0.675139 -0.130463 0.790681 0.001024 0.612228
0.071304 0.718206 -0.243135 0.794449 0.001021 -0.607330
0.071897 0.716646 -0.219728 0.425118 0.000000 0.905138
0.070282 0.716303 -0.197808 0.972286 0.000000 -0.233793
0.071710 0.717709 -0.130505 0.797015 0.001021 0.603959
0.071282 0.756110 -0.243100 0.796036 0.001020 -0.605248
0.077710 0.757387 -0.234035 0.856850 0.001039 -0.515564
0.087617 0.753671 -0.191792 0.095725 0.995270 0.016563
0.071689 0.756411 -0.130543 0.799059 0.001019 0.601251
0.071331 0.797424 -0.243173 0.778456 0.002625 -0.627694
0.070953 0.806355 -0.234610 0.000000 1.000000 0.000000
0.070324 0.806355 -0.196439 0.000000 1.000000 0.000000
0.071726 0.795079 -0.130476 0.781270 0.003828 0.624182
0.109168 -0.008233 -0.259662 0.918370 -0.295772 0.262898
0.112093 -0.022348 -0.223885 0.047915 0.170758 -0.984147
0.110647 -0.024137 -0.197305 0.491525 -0.507431 0.707755
0.109709 -0.025920 -0.153690 0.000000 -1.000000 0.000000
0.109877 -0.001994 -0.258346 0.019759 0.190053 -0.981575
0.109908 -0.001726 -0.220408 0.047293 0.166788 -0.984858
0.112373 -0.001955 -0.194013 0.923861 -0.127347 0.360919
0.112472 -0.001932 -0.144425 0.022873 -0.172419 0.984758
0.109886 0.035702 -0.258627 0.835871 -0.000375 -0.548926
0.109939 0.036232 -0.213984 0.094117 0.167314 -0.981401
0.111774 0.037098 -0.186806 0.909367 -0.132052 0.394480
0.111344 0.033955 -0.138099 -0.015133 -0.175032 0.984446
0.110716 0.076464 -0.257192 0.785359 0.006193 -0.619009
0.109683 0.074124 -0.235432 0.708665 -0.171087 0.684487
0.111081 0.076002 -0.179815 0.256423 -0.162716 0.952770
0.109272 0.078090 -0.156249 0.562796 0.165784 -0.809800
0.112257 0.117593 -0.249709 0.076596 0.198782 -0.977046
0.112823 0.116536 -0.228110 0.660515 -0.172770 0.730665
0.110310 0.114764 -0.173003 0.195749 -0.161567 0.967253
0.108786 0.115726 -0.148545 0.620327 0.166108 -0.766553
0.109154 0.163148 -0.208488 0.950432 -0.215863 -0.223791
0.108775 0.158498 -0.192477 0.849875 -0.524508 -0.051034
0.109154 0.198540 -0.208488 -0.676622 0.584139 -0.448290
0.110804 0.197819 -0.196991 0.303270 0.952516 0.027200
