ply
format ascii 1.0
comment SurfExtract output
element vertex 291
property float x
property float y
property float z
property float nx
property float ny
property float nz
end_header
-0.203750 -0.029616 -0.000001 -1.000000 0.000342 0.000803
-0.203750 0.029616 0.000001 -1.000000 -0.000342 -0.000804
-0.184797 -0.036750 -0.083910 -0.985677 -0.105037 0.131943
-0.198818 -0.036750 -0.043816 -0.668680 -0.738042 -0.090336
-0.199530 -0.036750 -0.039652 -0.189101 0.725847 -0.661352
-0.203512 -0.036750 0.000770 -0.983866 -0.090222 0.154490
-0.198981 -0.036750 0.040866 -0.983721 -0.089460 0.155853
-0.186726 -0.036750 0.080476 -0.984225 -0.092188 0.151003
-0.164071 -0.036750 0.120364 -0.197302 0.927705 0.316915
-0.183856 -0.032238 -0.087345 -0.891009 0.000000 -0.453986
-0.198916 -0.032445 -0.043788 -0.965923 0.000000 -0.258831
-0.199613 -0.032197 -0.040374 -0.570470 0.000000 -0.821318
-0.203665 -0.032061 -0.001613 -0.999583 0.000000 -0.028881
-0.200070 -0.031944 0.037486 -0.987690 0.000000 0.156425
-0.188430 -0.031891 0.076893 -0.933581 0.000000 0.358367
-0.166787 -0.031986 0.116758 -0.838657 0.000000 0.544660
-0.183856 0.007606 -0.087345 -0.891009 0.000000 -0.453986
-0.198916 0.008016 -0.043788 -0.965923 0.000000 -0.258831
-0.199613 0.008157 -0.040374 -0.570470 0.000000 -0.821318
-0.203665 0.007711 -0.001613 -0.999583 0.000000 -0.028881
-0.200070 0.008082 0.037486 -0.987690 0.000000 0.156425
-0.188430 0.007698 0.076893 -0.933581 0.000000 0.358367
-0.166787 0.008084 0.116758 -0.838657 0.000000 0.544661
-0.160284 -0.036750 -0.124624 -0.245183 0.934754 -0.257138
-0.163676 -0.036750 -0.119405 0.000000 -1.000000 0.000000
-0.162871 -0.036750 -0.078986 0.000000 -1.000000 0.000000
-0.162910 -0.036750 -0.039652 0.000000 -1.000000 0.000000
-0.163250 -0.036750 0.030556 0.000000 -1.000000 0.000000
-0.163685 -0.036750 0.040866 0.000000 -1.000000 0.000000
-0.163652 -0.036750 0.080477 0.000000 -1.000000 0.000000
-0.163245 -0.036750 0.120364 0.000000 -1.000000 0.000000
-0.129347 -0.036750 0.156879 -0.530982 -0.510934 0.676021
-0.160561 -0.031757 -0.125041 -0.777154 0.000000 -0.629311
-0.162029 -0.031803 -0.123229 -0.777151 0.000000 -0.629314
-0.144372 -0.033011 -0.083353 0.499991 0.000001 -0.866030
-0.163423 -0.034112 -0.028816 -0.173637 -0.000000 0.984810
-0.161962 -0.031810 0.028558 -0.173636 -0.000001 -0.984810
-0.128841 -0.032026 0.074387 0.499993 0.000001 0.866030
-0.146932 -0.032150 0.084831 0.812651 0.087479 0.576148
-0.163712 -0.031963 0.121150 -0.777154 -0.000001 0.629310
-0.130069 -0.031790 0.156490 -0.629317 0.000000 0.777149
-0.159098 0.008015 -0.126848 -0.777157 0.000000 -0.629307
-0.162029 0.008039 -0.123229 -0.777151 0.000000 -0.629314
-0.163308 0.036750 -0.082676 0.000000 1.000000 0.000000
-0.163506 0.007480 -0.028830 -0.173638 0.000000 0.984810
-0.161431 0.008024 0.028464 -0.173637 -0.000001 -0.984810
-0.163335 0.036750 0.036762 0.000000 1.000000 0.000000
-0.163312 0.036750 0.076629 0.000000 1.000000 0.000000
-0.163738 0.003730 0.121118 -0.777153 0.000001 0.629312
-0.130069 0.007862 0.156490 -0.629317 0.000000 0.777149
-0.118858 -0.036750 -0.165242 -0.476816 -0.552314 -0.683810
-0.123291 -0.036750 -0.159512 0.000000 -1.000000 0.000000
-0.122882 -0.036750 -0.119401 -0.000004 -0.996692 0.081273
-0.123328 -0.036750 -0.069239 0.000000 -1.000000 0.000000
-0.123474 -0.036750 -0.039652 0.000000 -1.000000 0.000000
-0.119652 -0.036750 0.021130 -0.556681 -0.717998 -0.417834
-0.123094 -0.036750 0.040867 0.000000 -1.000000 0.000000
-0.096662 -0.036750 0.115864 -0.298545 -0.920647 -0.251554
-0.123569 -0.036750 0.120366 0.000000 -1.000000 0.000000
-0.123285 -0.036750 0.161076 0.000000 -1.000000 0.000000
-0.119287 -0.032365 -0.165145 -0.552244 0.000000 -0.833682
-0.121462 -0.032384 -0.163460 -0.629311 0.000000 -0.777154
-0.119801 -0.031915 -0.121402 0.677046 -0.000316 0.735941
-0.119159 -0.032916 -0.068797 0.499989 0.000001 -0.866032
-0.121602 -0.031775 -0.021442 -0.173637 0.000001 0.984810
-0.119637 -0.032277 0.021096 -0.173637 -0.000000 -0.984810
-0.119927 -0.031989 0.069240 0.499993 0.000001 0.866029
-0.093882 -0.033446 0.111884 -0.766043 0.000001 -0.642790
-0.119982 -0.033445 0.121236 0.683044 -0.001628 -0.730376
-0.123609 -0.032406 0.161721 -0.629310 0.000000 0.777155
-0.119287 0.007836 -0.165145 -0.552244 0.000000 -0.833682
-0.121462 0.007840 -0.163460 -0.629311 0.000000 -0.777154
-0.119862 0.008162 -0.121345 0.677956 -0.000534 0.735103
-0.119677 0.006931 -0.069095 0.499991 0.000001 -0.866030
-0.121581 0.008094 -0.021438 -0.173638 -0.000001 0.984810
-0.119506 0.008080 0.021072 -0.173637 -0.000000 -0.984810
-0.120408 0.007760 0.069518 0.499992 0.000002 0.866030
-0.096941 0.007219 0.115529 -0.766044 0.000002 -0.642788
-0.120035 0.006754 0.121187 0.683937 -0.001902 -0.729539
-0.123609 0.007846 0.161721 -0.629310 0.000000 0.777155
-0.082747 -0.036750 -0.184688 0.000000 -1.000000 0.000000
-0.083388 -0.036750 -0.159511 0.000000 -1.000000 0.000000
-0.083081 -0.036750 -0.119402 0.000000 -1.000000 0.000000
-0.083612 -0.036750 -0.078988 0.000000 -1.000000 0.000000
-0.083099 -0.036750 -0.039654 0.000000 -1.000000 0.000000
-0.083460 -0.036750 0.015773 0.680881 -0.651913 -0.333781
-0.083386 -0.036750 0.040866 0.000000 -1.000000 0.000000
-0.083321 -0.036750 0.080477 0.000000 -1.000000 0.000000
-0.083068 -0.036750 0.120367 0.000000 -1.000000 0.000000
-0.083386 -0.036750 0.161075 0.000000 -1.000000 0.000000
-0.049045 -0.036750 0.197498 -0.317939 -0.625839 0.712208
-0.079298 -0.031807 -0.187507 -0.358357 0.000000 -0.933585
-0.058762 -0.032250 -0.160023 0.922947 0.075586 0.377432
-0.083196 -0.033405 -0.099148 -0.766043 0.000001 0.642789
-0.083544 -0.032969 -0.083332 -0.686210 -0.000001 -0.727404
-0.079324 -0.032158 -0.029973 0.919966 -0.000001 0.391997
-0.083562 -0.032840 0.015005 0.976548 -0.007924 -0.215152
-0.074865 -0.032970 0.040132 0.864251 -0.005309 -0.503034
-0.080883 -0.032260 0.085843 -0.686208 -0.000000 0.727405
-0.054683 -0.032760 0.150239 0.939694 0.000001 0.342018
-0.083213 -0.031761 0.185962 -0.432857 0.000000 0.901462
-0.053399 -0.032187 0.196341 -0.258827 0.000000 0.965924
-0.079298 0.007866 -0.187507 -0.358357 0.000000 -0.933585
-0.083625 0.036750 -0.163647 0.000000 1.000000 0.000000
-0.083345 0.007912 -0.099327 -0.766043 -0.000001 0.642789
-0.083663 0.006053 -0.083220 -0.686209 0.000001 -0.727404
-0.078773 0.007322 -0.031267 0.919967 0.000000 0.391996
-0.083557 0.007481 0.015023 0.976107 -0.007544 -0.217161
-0.083659 0.036750 0.036762 0.000000 1.000000 0.000000
-0.080757 0.008182 0.085962 -0.686207 0.000001 0.727406
-0.083322 0.036750 0.116767 0.000000 1.000000 0.000000
-0.083213 0.007855 0.185962 -0.432857 0.000000 0.901462
-0.053399 0.007960 0.196341 -0.258827 0.000000 0.965924
-0.042564 -0.036750 -0.199049 -0.704851 0.690791 -0.161223
-0.004603 -0.036750 -0.159511 -0.673082 -0.739565 0.002096
-0.043124 -0.036750 -0.114222 0.000000 -1.000000 0.000000
-0.043013 -0.036750 -0.078986 0.000000 -1.000000 0.000000
-0.043327 -0.036750 0.075664 0.000000 -1.000000 0.000000
-0.043156 -0.036750 0.080479 0.000000 -1.000000 0.000000
-0.043459 -0.036750 0.118570 0.601566 -0.792725 0.098519
-0.043296 -0.036750 0.166072 0.000000 -1.000000 0.000000
-0.042805 -0.036750 0.199063 -0.175550 -0.696634 0.695617
-0.039342 -0.031766 -0.199776 -0.156425 0.000000 -0.987690
-0.005576 -0.032228 -0.163070 -1.000000 0.000000 0.000000
-0.043741 -0.033732 -0.118750 0.939697 -0.000000 -0.342009
-0.041121 -0.031763 -0.074090 0.499983 0.000001 0.866035
-0.039139 -0.033390 0.075235 0.499984 0.000001 -0.866035
-0.039653 -0.032404 0.111246 -0.070168 -0.011401 0.997470
-0.042324 -0.034321 0.116285 0.939693 0.000000 0.342018
-0.040805 -0.031806 0.165535 0.216408 0.000004 -0.976303
-0.039342 -0.031766 0.199776 -0.156425 0.000000 0.987690
-0.039342 0.008029 -0.199776 -0.156425 0.000000 -0.987690
-0.005576 0.007319 -0.163334 -0.495496 0.868610 0.000000
-0.041936 0.007321 -0.113791 0.939696 -0.000001 -0.342010
-0.041319 0.008131 -0.073976 0.499984 -0.000000 0.866035
-0.039422 0.006673 0.075071 0.499982 -0.000001 -0.866036
-0.040285 0.007486 0.111057 0.359030 -0.034075 0.932704
-0.042701 0.006869 0.117320 0.939695 0.000000 0.342015
-0.039789 0.007282 0.165760 0.216414 0.000000 -0.976302
-0.043227 0.008007 0.199066 -0.258829 0.000000 0.965923
-0.003678 -0.036750 -0.199050 0.000000 -1.000000 0.000000
-0.003580 -0.036750 -0.159511 0.000000 -1.000000 0.000000
-0.003483 -0.036750 -0.119403 0.000000 -1.000000 0.000000
0.015071 -0.036750 -0.083561 -0.328658 -0.691638 0.643134
-0.002978 -0.036750 0.086205 0.000000 -1.000000 0.000000
0.000413 -0.036750 0.120364 -0.646829 -0.762635 -0.000227
0.000399 -0.036750 0.161075 -0.702711 -0.711476 -0.000247
-0.003466 -0.036750 0.200622 0.000000 -1.000000 0.000000
-0.000002 -0.034953 -0.203750 0.000043 0.000015 -1.000000
0.001009 -0.032132 -0.203697 0.051961 0.000000 -0.998649
-0.003671 -0.032209 -0.084645 0.040280 0.000001 0.999189
0.014157 -0.032585 -0.083628 -0.120553 -0.000000 0.992707
0.000525 -0.032444 0.084814 0.040278 0.000001 -0.999189
-0.003175 -0.032554 0.117960 -0.058154 0.000000 0.998308
0.000000 -0.032258 0.156742 -1.000000 0.000000 0.000000
-0.003681 -0.031993 0.203557 -0.052322 0.000000 0.998630
0.000002 0.034953 -0.203750 -0.000043 -0.000015 -1.000000
0.001009 0.007582 -0.203697 0.051961 0.000000 -0.998649
-0.003589 0.036750 -0.163647 0.000000 1.000000 0.000000
-0.003515 0.007233 -0.084651 0.040277 -0.000001 0.999189
0.013553 0.006833 -0.083701 -0.120550 -0.000001 0.992707
0.000502 0.007022 0.084813 0.040278 -0.000001 -0.999188
-0.003020 0.006223 0.117969 -0.058155 0.000000 0.998308
0.000000 0.007241 0.156861 -1.000000 0.000000 0.000000
-0.003681 0.007549 0.203557 -0.052322 0.000000 0.998630
0.036258 -0.036750 -0.199049 0.000078 -0.091158 -0.995836
0.036322 -0.036750 -0.159510 0.000000 -1.000000 0.000000
0.036318 -0.036750 -0.119403 0.000000 -1.000000 0.000000
0.037214 -0.036750 -0.078987 0.000000 -1.000000 0.000000
0.075587 -0.036750 -0.039653 -0.224704 -0.974344 -0.012756
0.038179 -0.036750 0.075662 -0.243018 -0.955751 -0.165775
0.036319 -0.036750 0.080477 0.000000 -1.000000 0.000000
0.036781 -0.036750 0.120367 0.000000 -1.000000 0.000000
0.036307 -0.036750 0.161075 0.000000 -1.000000 0.000000
0.036609 -0.036750 0.199844 0.000000 -0.790022 0.613079
0.040193 -0.032053 -0.199642 0.156429 0.000000 -0.987689
0.045674 -0.032759 -0.125490 0.937160 0.001214 0.348899
0.041198 -0.034943 -0.113190 0.935816 -0.341765 0.086290
0.037057 -0.032943 -0.076195 -0.428668 -0.000001 0.903462
0.072934 -0.032301 -0.043347 -0.885468 -0.000001 0.464701
0.038060 -0.032269 0.075718 -0.428670 0.000000 -0.903461
0.036380 -0.032122 0.076516 -0.428668 -0.000001 -0.903462
0.042404 -0.032582 0.116503 0.939695 -0.000000 -0.342015
0.054524 -0.031887 0.196039 0.258828 0.000000 0.965924
0.036467 -0.031913 0.200232 0.156422 0.000000 0.987690
0.040193 0.007919 -0.199642 0.156429 0.000000 -0.987689
0.036425 0.036750 -0.163647 0.000000 1.000000 0.000000
0.040523 0.007559 -0.111336 0.134591 0.761223 -0.634370
0.036407 0.008076 -0.076503 -0.428669 0.000000 0.903462
0.072741 0.006342 -0.043714 -0.885467 0.000001 0.464701
0.038393 0.007676 0.075560 -0.428668 -0.000000 -0.903462
0.036406 0.008075 0.076503 -0.428667 -0.000002 -0.903463
0.036894 0.036750 0.116766 0.000000 1.000000 0.000000
0.036442 0.036750 0.156879 0.000000 1.000000 0.000000
0.036467 0.007885 0.200232 0.156427 0.000000 0.987689
0.076502 -0.036750 -0.184688 0.000000 -1.000000 0.000000
0.077249 -0.036750 -0.159512 0.000000 -1.000000 0.000000
0.079630 -0.036750 -0.093870 -0.579152 -0.663215 -0.474055
0.076845 -0.036750 -0.078987 0.000000 -1.000000 0.000000
0.076525 -0.036750 -0.039653 0.000000 -1.000000 0.000000
0.081244 -0.036750 0.024768 -0.623261 -0.726947 -0.288261
0.076329 -0.036750 0.040866 0.000000 -1.000000 0.000000
0.076485 -0.036750 0.080478 0.000000 -1.000000 0.000000
0.079299 -0.036750 0.150952 -0.129132 -0.987572 -0.089593
0.077003 -0.036750 0.161075 0.000000 -1.000000 0.000000
0.080795 -0.032285 -0.186933 0.358364 0.000000 -0.933582
0.080454 -0.031814 -0.150272 0.689486 0.701785 -0.179182
0.079031 -0.033092 -0.094186 -0.766043 -0.000001 -0.642789
0.104981 -0.032318 -0.060611 0.756892 -0.049580 0.651657
0.076660 -0.032576 -0.036248 -0.885469 0.000000 0.464699
0.081120 -0.033038 0.024566 -0.948530 0.000001 -0.316687
0.076641 -0.033413 0.036284 -0.885468 0.000000 -0.464700
0.076451 -0.033249 0.091111 -0.621426 0.027352 0.782995
0.080454 -0.031813 0.150272 0.689480 0.701791 0.179184
0.076930 -0.032107 0.188416 0.358362 0.000000 0.933583
0.080795 0.007573 -0.186933 0.358365 0.000000 -0.933582
0.076303 0.006599 -0.152433 -0.461800 -0.000004 0.886984
0.078669 0.007074 -0.093753 -0.766042 0.000000 -0.642790
0.077052 0.036750 -0.082679 0.000000 1.000000 0.000000
0.076309 0.005910 -0.036917 -0.885469 0.000001 0.464699
0.081239 0.007462 0.024209 -0.948530 0.000002 -0.316686
0.076309 0.005910 0.036916 -0.885468 0.000000 -0.464701
0.076367 0.005356 0.091011 -0.547035 0.041211 0.836095
0.080329 0.007416 0.150337 -0.461805 0.000001 -0.886982
0.076930 0.007532 0.188416 0.358362 0.000000 0.933583
0.116568 -0.036750 -0.165032 0.000000 -1.000000 0.000000
0.117151 -0.036750 -0.159512 0.000000 -1.000000 0.000000
0.116912 -0.036750 -0.119402 0.000000 -1.000000 0.000000
0.116476 -0.036750 -0.078988 0.000000 -1.000000 0.000000
0.116957 -0.036750 -0.019133 0.000000 -1.000000 0.000000
0.117008 -0.036750 0.000770 0.000000 -1.000000 0.000000
0.116714 -0.036750 0.070812 0.000000 -1.000000 0.000000
0.116649 -0.036750 0.080479 0.000000 -1.000000 0.000000
0.116959 -0.036750 0.120366 0.000000 -1.000000 0.000000
0.116901 -0.036750 0.161076 0.000000 -1.000000 0.000000
0.117981 -0.031765 -0.165993 0.580557 0.000000 -0.814220
0.121144 -0.032054 -0.163717 0.602755 -0.015228 -0.797781
0.145328 -0.032969 -0.083905 0.499993 0.000000 0.866030
0.120193 -0.031869 -0.069394 0.499992 -0.000001 0.866030
0.118415 -0.032023 -0.020880 0.578794 0.098166 -0.809544
0.118415 -0.032023 0.020880 0.578794 0.098166 0.809543
0.118170 -0.031812 0.068226 0.499991 0.000001 -0.866031
0.135206 -0.031972 0.078061 0.499993 0.000001 -0.866029
0.130608 -0.031795 0.156053 0.629315 0.000000 0.777150
0.117981 -0.031765 0.165993 0.580557 0.000000 0.814220
0.117981 0.008047 -0.165993 0.580557 0.000000 -0.814220
0.121192 0.005845 -0.163678 0.624426 0.001432 -0.781083
0.117234 0.036750 -0.123314 0.000000 1.000000 0.000000
0.119549 0.008153 -0.069022 0.499992 0.000001 0.866030
0.118437 0.008174 -0.020884 -0.173638 0.000000 -0.984810
0.117560 0.007913 0.020729 0.482971 -0.186529 0.855538
0.120725 0.007234 0.069701 0.499991 -0.000001 -0.866031
0.117018 0.036750 0.076630 0.000000 1.000000 0.000000
0.116485 0.036750 0.116767 0.000000 1.000000 0.000000
0.117981 0.008047 0.165993 0.580557 0.000000 0.814220
0.157087 -0.036750 -0.129270 0.660503 -0.377870 -0.648807
0.156711 -0.036750 -0.119404 0.000000 -1.000000 0.000000
0.157071 -0.036750 -0.078986 0.000000 -1.000000 0.000000
0.156455 -0.036750 -0.024769 0.000000 -1.000000 0.000000
0.157073 -0.036750 0.000770 0.000000 -1.000000 0.000000
0.161107 -0.036750 0.056062 -0.654361 -0.670792 -0.349069
0.156815 -0.036750 0.080478 0.000000 -1.000000 0.000000
0.156632 -0.036750 0.120365 0.000000 -1.000000 0.000000
0.157154 -0.032344 -0.129250 0.777156 0.000000 -0.629308
0.165421 -0.031921 -0.118862 0.838655 0.000000 -0.544663
0.158015 -0.032720 -0.063906 -0.923900 0.000001 0.382633
0.156606 -0.031863 -0.027614 -0.173637 0.000000 -0.984810
0.156605 -0.031863 0.027614 -0.173636 0.000000 0.984810
0.161050 -0.032067 0.056024 -0.953705 0.000002 -0.300745
0.170459 -0.032161 0.111105 0.838657 0.000000 0.544659
0.160561 -0.031757 0.125041 0.777154 0.000000 0.629311
0.157154 0.007998 -0.129250 0.777156 0.000000 -0.629308
0.157143 0.036750 -0.123314 0.000000 1.000000 0.000000
0.156252 0.007648 -0.068164 -0.923902 0.000001 0.382629
0.161165 0.008213 -0.028418 -0.173637 -0.000000 -0.984810
0.156888 0.006911 0.027663 -0.173638 -0.000001 0.984810
0.161089 0.006066 0.055899 -0.953706 0.000002 -0.300742
0.156454 0.036750 0.076630 0.000000 1.000000 0.000000
0.159585 0.008019 0.126246 0.777157 0.000000 0.629307
0.197140 -0.036750 -0.048980 0.192413 0.791708 -0.579807
0.196713 -0.036750 -0.039652 0.000000 -1.000000 0.000000
0.197138 -0.036750 0.000770 0.000000 -1.000000 0.000000
0.196334 -0.036750 0.040866 0.000000 -1.000000 0.000000
0.197495 -0.032230 -0.049091 0.965922 -0.000000 -0.258832
0.199613 -0.032197 -0.040374 0.570470 0.000000 -0.821318
0.201139 -0.032231 0.030735 0.987690 0.000000 0.156427
0.199543 -0.031803 0.040817 0.987231 0.000000 0.159296
0.197495 0.007963 -0.049091 0.965922 0.000000 -0.258832
0.199613 0.008156 -0.040374 0.570471 0.000000 -0.821318
0.201139 0.008156 0.030735 0.987689 0.000000 0.156427
0.199543 0.008047 0.040817 0.987231 0.000000 0.159296
